<svg xmlns="http://www.w3.org/2000/svg" version="1.1" xmlns:xlink="http://www.w3.org/1999/xlink" xmlns:svgjs="http://svgjs.dev/svgjs" width="2000" height="1500" viewBox="0 0 2000 1500"><rect width="2000" height="1500" fill="#282634"></rect><g transform="matrix(0.75,0,0,0.75,249.090909090909,282.7536437246963)"><svg viewBox="0 0 396 247" data-background-color="#282634" preserveAspectRatio="xMidYMid meet" height="1247" width="2000" xmlns="http://www.w3.org/2000/svg" xmlns:xlink="http://www.w3.org/1999/xlink"><g id="tight-bounds" transform="matrix(1,0,0,1,0.2400000000000091,-0.09999999999999432)"><svg viewBox="0 0 395.52 247.2" height="247.2" width="395.52"><g><svg></svg></g><g><svg viewBox="0 0 395.52 247.2" height="247.2" width="395.52"><g transform="matrix(1,0,0,1,75.54432,98.0366479551999)"><svg viewBox="0 0 244.43135999999998 51.12670408960018" height="51.12670408960018" width="244.43135999999998"><g><svg viewBox="0 0 244.43135999999998 51.12670408960018" height="51.12670408960018" width="244.43135999999998"><g><svg viewBox="0 0 244.43135999999998 51.12670408960018" height="51.12670408960018" width="244.43135999999998"><g><svg viewBox="0 0 244.43135999999998 51.12670408960018" height="51.12670408960018" width="244.43135999999998"><g id="textblocktransform"><svg viewBox="0 0 244.43135999999998 51.12670408960018" height="51.12670408960018" width="244.43135999999998" id="textblock"><g><svg viewBox="0 0 244.43135999999998 27.57530116866848" height="27.57530116866848" width="244.43135999999998"><g transform="matrix(1,0,0,1,0,0)"><svg width="244.43135999999998" viewBox="2.69 -36.89 331.29 37.38" height="27.57530116866848" data-palette-color="#ff4057"><path d="M16.16-12.52L16.16-34.69 22.31-34.69 22.31-12.48Q22.31-11.16 22.2-10.03 22.09-8.91 21.74-7.56 21.39-6.2 20.8-5.11 20.21-4.03 19.17-2.95 18.12-1.88 16.71-1.17 15.31-0.46 13.24-0.02 11.18 0.42 8.64 0.42L8.64 0.42Q6.03 0.42 3.61-0.2L3.61-0.2 2.69-0.44 3.71-5.86 4.74-5.62Q6.27-5.25 7.96-5.25L7.96-5.25Q9.57-5.25 10.88-5.55 12.18-5.86 13.02-6.31 13.87-6.76 14.49-7.45 15.11-8.13 15.42-8.74 15.72-9.35 15.91-10.14 16.09-10.94 16.13-11.43 16.16-11.91 16.16-12.52L16.16-12.52ZM49.61-6.45L49.61-24.12 55.61-24.12 55.61 0 51.14 0 50.44-1.64Q45.53 0.49 40.99 0.49L40.99 0.49Q38.62 0.49 36.89-0.13 35.15-0.76 34.16-1.72 33.18-2.69 32.59-4.13 32-5.57 31.83-6.88 31.66-8.2 31.66-9.86L31.66-9.86 31.66-24.12 37.67-24.12 37.67-9.91Q37.67-9.28 37.73-8.79 37.79-8.3 38.08-7.56 38.38-6.81 38.91-6.32 39.45-5.83 40.52-5.47 41.6-5.1 43.06-5.1L43.06-5.1Q45.99-5.1 49.61-6.45L49.61-6.45ZM74.58-24.58L74.58-24.58Q77.22-24.58 79.21-24.11 81.2-23.63 82.42-22.85 83.64-22.07 84.39-20.9 85.15-19.73 85.43-18.52 85.71-17.31 85.71-15.82L85.71-15.82 85.71 0 81.22 0 80.54-1.59Q77.29 0.49 73.14 0.49L73.14 0.49Q68.62 0.49 65.82-1.64 63.01-3.76 63.01-6.67L63.01-6.67Q63.01-8.47 63.92-9.81 64.84-11.16 66.33-11.96 67.82-12.77 70.06-13.28 72.31-13.79 74.57-13.99 76.83-14.18 79.68-14.21L79.68-14.21 79.68-15.04Q79.68-15.97 79.52-16.58 79.37-17.19 78.83-17.87 78.29-18.55 77.03-18.91 75.78-19.26 73.82-19.26L73.82-19.26Q71.09-19.26 66.57-18.19L66.57-18.19 65.6-17.92 64.35-22.73 65.2-23.02Q69.72-24.58 74.58-24.58ZM79.68-6.23L79.68-6.23 79.68-9.67 79.1-9.67Q74.16-9.67 71.76-9.08 69.36-8.5 69.36-7.1L69.36-7.1Q69.36-6.23 70.82-5.44 72.29-4.66 74.41-4.66L74.41-4.66Q77.41-4.66 79.68-6.23ZM94.5 0L94.5-24.12 98.7-24.12 99.53-22.46Q104.56-24.61 108.88-24.61L108.88-24.61Q111.22-24.61 112.93-23.97 114.64-23.34 115.62-22.39 116.59-21.44 117.17-19.98 117.74-18.53 117.91-17.21 118.08-15.89 118.08-14.23L118.08-14.23 118.08 0 112.08 0 112.08-14.16Q112.08-14.84 112.02-15.34 111.96-15.84 111.66-16.59 111.37-17.33 110.86-17.81 110.34-18.29 109.31-18.64 108.27-18.99 106.85-18.99L106.85-18.99Q104-18.99 100.51-17.65L100.51-17.65 100.51 0 94.5 0ZM151.01 0L139.56-34.69 146.06-34.69 154.04-8.03 164.07-34.69 169.74-34.69 177.99-8.03 187.76-34.69 194.25-34.69 180.94 0 175.06 0 166.71-26.54 156.9 0 151.01 0ZM199.03-28.08L199.03-34.69 205.77-34.69 205.77-28.08 199.03-28.08ZM199.4 0L199.4-24.12 205.4-24.12 205.4 0 199.4 0ZM214.68 0L214.68-36.89 220.69-36.89 220.69 0 214.68 0ZM246.76-24.12L253.06-24.12 243.56 0 237.09 0 227.15-24.12 234.09-24.12 240.48-6.35 246.76-24.12ZM270.95-24.58L270.95-24.58Q273.05-24.58 274.72-24.13 276.39-23.68 277.48-22.99 278.57-22.29 279.36-21.18 280.15-20.07 280.57-19.06 280.98-18.04 281.22-16.63 281.45-15.21 281.5-14.23 281.54-13.26 281.54-11.91L281.54-11.91 281.54-9.18 263.41-9.18Q263.92-7.37 266.31-6.04 268.7-4.71 272.61-4.71L272.61-4.71Q275.37-4.71 278.22-5.54L278.22-5.54 279.23-5.83 280.42-1.2 279.54-0.9Q275.47 0.49 270.85 0.49L270.85 0.49Q267.63 0.49 265.14-0.22 262.65-0.93 261.15-2.05 259.65-3.17 258.68-4.76 257.72-6.35 257.35-7.93 256.98-9.52 256.98-11.33L256.98-11.33Q256.98-14.01 257.75-16.25 258.52-18.48 259.85-20.01 261.18-21.53 262.98-22.58 264.77-23.63 266.77-24.11 268.78-24.58 270.95-24.58ZM269.95-19.12L269.95-19.12Q267.14-19.12 265.46-17.71 263.77-16.31 263.45-14.21L263.45-14.21 275.64-14.21Q275.44-16.85 273.98-17.98 272.51-19.12 269.95-19.12ZM293.11-24.12L293.82-22.83Q297.63-24.58 301.95-24.58L301.95-24.58Q304.71-24.58 306.98-23.54L306.98-23.54 307.84-23.14 305.93-18.14 304.98-18.51Q303.27-19.17 301.27-19.17L301.27-19.17Q298.07-19.17 295.12-18.02L295.12-18.02 295.12 0 289.11 0 289.11-24.12 293.11-24.12ZM327.54-7.2L327.54-7.2Q327.49-7.81 326.6-8.28 325.7-8.74 324.31-9.11 322.92-9.47 321.26-9.86 319.6-10.25 317.95-10.83 316.31-11.4 314.94-12.17 313.57-12.94 312.72-14.2 311.86-15.45 311.86-17.07L311.86-17.07Q311.86-18.02 312.22-18.98 312.57-19.95 313.5-20.98 314.43-22.02 315.84-22.8 317.26-23.58 319.63-24.08 321.99-24.58 324.97-24.58L324.97-24.58Q326.73-24.58 328.15-24.4 329.56-24.22 330.15-24.07 330.73-23.93 331.93-23.56L331.93-23.56 332.93-23.27 331.27-18.33 330.34-18.58Q327.17-19.46 324.17-19.46L324.17-19.46Q322.65-19.46 321.51-19.25 320.36-19.04 319.76-18.76 319.16-18.48 318.8-18.1 318.43-17.72 318.33-17.47 318.23-17.21 318.23-16.99L318.23-16.99Q318.23-16.43 319.1-15.97 319.97-15.5 321.36-15.12 322.75-14.75 324.42-14.32 326.1-13.89 327.78-13.28 329.46-12.67 330.86-11.89 332.25-11.11 333.11-9.89 333.98-8.67 333.98-7.15L333.98-7.15Q333.98-6.1 333.68-5.13 333.37-4.15 332.5-3.1 331.64-2.05 330.27-1.28 328.9-0.51 326.58-0.01 324.26 0.49 321.26 0.49L321.26 0.49Q316.57 0.49 311.91-1.42L311.91-1.42 311.01-1.78 312.81-6.67 313.74-6.3Q318.11-4.66 321.48-4.66L321.48-4.66Q324.61-4.66 326.07-5.29 327.54-5.91 327.54-7.2Z" opacity="1" transform="matrix(1,0,0,1,0,0)" fill="#ff4057" class="wordmark-text-0" data-fill-palette-color="primary" id="text-0"></path></svg></g></svg></g><g transform="matrix(1,0,0,1,0,34.08516796736306)"><svg viewBox="0 0 244.43135999999998 17.041536122237122" height="17.041536122237122" width="244.43135999999998"><g transform="matrix(1,0,0,1,0,0)"><svg width="244.43135999999998" viewBox="2.25 -37.99 717.16 50" height="17.041536122237122" data-palette-color="#dcdcdc"><path d="M12.55 0.49L12.55 0.49Q7.74 0.49 4.99-3.25 2.25-6.98 2.25-13.6L2.25-13.6Q2.25-20.31 5.04-24.06 7.84-27.81 12.74-27.81L12.74-27.81Q17.9-27.81 20.61-23.8L20.61-23.8 20.85-23.8Q20.29-26.86 20.29-29.25L20.29-29.25 20.29-37.99 27.76-37.99 27.76 0 22.05 0 20.61-3.54 20.29-3.54Q17.75 0.49 12.55 0.49ZM15.16-5.44L15.16-5.44Q18.02-5.44 19.35-7.1 20.68-8.76 20.8-12.74L20.8-12.74 20.8-13.55Q20.8-17.94 19.45-19.85 18.09-21.75 15.04-21.75L15.04-21.75Q12.55-21.75 11.17-19.64 9.79-17.53 9.79-13.5L9.79-13.5Q9.79-9.47 11.18-7.46 12.57-5.44 15.16-5.44ZM105.75-22.51L105.75-22.51Q103.38-22.51 102.04-21.01 100.7-19.51 100.5-16.75L100.5-16.75 110.95-16.75Q110.9-19.51 109.51-21.01 108.12-22.51 105.75-22.51ZM106.8 0.49L106.8 0.49Q100.21 0.49 96.5-3.15 92.79-6.79 92.79-13.45L92.79-13.45Q92.79-20.31 96.22-24.06 99.65-27.81 105.7-27.81L105.7-27.81Q111.49-27.81 114.71-24.51 117.93-21.22 117.93-15.41L117.93-15.41 117.93-11.79 100.33-11.79Q100.45-8.62 102.21-6.84 103.97-5.05 107.14-5.05L107.14-5.05Q109.61-5.05 111.8-5.57 114-6.08 116.39-7.2L116.39-7.2 116.39-1.44Q114.44-0.46 112.22 0.01 110 0.49 106.8 0.49ZM197.02 0L189.38 0 178.98-27.29 186.77-27.29 192.04-11.74Q192.92-8.79 193.14-6.15L193.14-6.15 193.29-6.15Q193.41-8.5 194.38-11.74L194.38-11.74 199.63-27.29 207.42-27.29 197.02 0ZM281.53-22.51L281.53-22.51Q279.16-22.51 277.82-21.01 276.48-19.51 276.28-16.75L276.28-16.75 286.73-16.75Q286.68-19.51 285.29-21.01 283.9-22.51 281.53-22.51ZM282.58 0.49L282.58 0.49Q275.99 0.49 272.28-3.15 268.57-6.79 268.57-13.45L268.57-13.45Q268.57-20.31 272-24.06 275.43-27.81 281.48-27.81L281.48-27.81Q287.27-27.81 290.49-24.51 293.71-21.22 293.71-15.41L293.71-15.41 293.71-11.79 276.11-11.79Q276.23-8.62 277.99-6.84 279.75-5.05 282.92-5.05L282.92-5.05Q285.39-5.05 287.59-5.57 289.78-6.08 292.18-7.2L292.18-7.2 292.18-1.44Q290.22-0.46 288 0.01 285.78 0.49 282.58 0.49ZM366.11-37.99L366.11 0 358.67 0 358.67-37.99 366.11-37.99ZM438.76-13.7L438.76-13.7Q438.76-9.64 440.09-7.57 441.42-5.49 444.42-5.49L444.42-5.49Q447.4-5.49 448.71-7.56 450.01-9.62 450.01-13.7L450.01-13.7Q450.01-17.75 448.69-19.78 447.38-21.8 444.37-21.8L444.37-21.8Q441.39-21.8 440.08-19.79 438.76-17.77 438.76-13.7ZM457.63-13.7L457.63-13.7Q457.63-7.03 454.11-3.27 450.6 0.49 444.32 0.49L444.32 0.49Q440.39 0.49 437.39-1.23 434.39-2.95 432.78-6.18 431.16-9.4 431.16-13.7L431.16-13.7Q431.16-20.39 434.66-24.1 438.15-27.81 444.47-27.81L444.47-27.81Q448.4-27.81 451.4-26.1 454.41-24.39 456.02-21.19 457.63-17.99 457.63-13.7ZM537.67 0.49L537.67 0.49Q532.86 0.49 530.13-3L530.13-3 529.74-3Q530.13 0.42 530.13 0.95L530.13 0.95 530.13 12.01 522.68 12.01 522.68-27.29 528.74-27.29 529.79-23.75 530.13-23.75Q532.74-27.81 537.87-27.81L537.87-27.81Q542.7-27.81 545.43-24.07 548.17-20.34 548.17-13.7L548.17-13.7Q548.17-9.33 546.89-6.1 545.61-2.88 543.24-1.2 540.87 0.49 537.67 0.49ZM535.47-21.85L535.47-21.85Q532.72-21.85 531.45-20.15 530.18-18.46 530.13-14.55L530.13-14.55 530.13-13.75Q530.13-9.35 531.43-7.45 532.74-5.54 535.57-5.54L535.57-5.54Q540.58-5.54 540.58-13.79L540.58-13.79Q540.58-17.82 539.34-19.84 538.11-21.85 535.47-21.85ZM624.52-22.51L624.52-22.51Q622.16-22.51 620.81-21.01 619.47-19.51 619.28-16.75L619.28-16.75 629.72-16.75Q629.68-19.51 628.28-21.01 626.89-22.51 624.52-22.51ZM625.57 0.49L625.57 0.49Q618.98 0.49 615.27-3.15 611.56-6.79 611.56-13.45L611.56-13.45Q611.56-20.31 614.99-24.06 618.42-27.81 624.48-27.81L624.48-27.81Q630.26-27.81 633.48-24.51 636.71-21.22 636.71-15.41L636.71-15.41 636.71-11.79 619.1-11.79Q619.23-8.62 620.98-6.84 622.74-5.05 625.92-5.05L625.92-5.05Q628.38-5.05 630.58-5.57 632.78-6.08 635.17-7.2L635.17-7.2 635.17-1.44Q633.22-0.46 630.99 0.01 628.77 0.49 625.57 0.49ZM716.89-27.81L716.89-27.81Q718.41-27.81 719.41-27.59L719.41-27.59 718.85-20.61Q717.94-20.85 716.65-20.85L716.65-20.85Q713.09-20.85 711.1-19.02 709.11-17.19 709.11-13.89L709.11-13.89 709.11 0 701.66 0 701.66-27.29 707.3-27.29 708.4-22.71 708.77-22.71Q710.03-25 712.2-26.4 714.36-27.81 716.89-27.81Z" opacity="1" transform="matrix(1,0,0,1,0,0)" fill="#dcdcdc" class="slogan-text-1" data-fill-palette-color="secondary" id="text-1"></path></svg></g></svg></g></svg></g></svg></g></svg></g></svg></g></svg></g><path d="M194.399 92.037L194.399 27.466 2.131 27.466 2.131 219.734 194.399 219.734 194.399 155.163 191.913 155.163 191.913 217.247 4.618 217.247 4.618 29.953 191.913 29.953 191.913 92.037Z" fill="#ff4057" stroke="transparent" data-fill-palette-color="primary"></path></svg></g><defs></defs></svg><rect width="395.52" height="247.2" fill="none" stroke="none" visibility="hidden"></rect></g></svg></g></svg>